<?xml version="1.0" encoding="utf-8"?>
<!-- Generator: Adobe Illustrator 23.0.1, SVG Export Plug-In . SVG Version: 6.00 Build 0)  -->
<svg version="1.1" id="Layer_1" xmlns="http://www.w3.org/2000/svg" xmlns:xlink="http://www.w3.org/1999/xlink" x="0px" y="0px"
	 viewBox="0 0 170.1 85" style="enable-background:new 0 0 170.1 85;" xml:space="preserve">
<style type="text/css">
	.st0{fill:#E5245F;}
	.st1{fill:#001689;}
	.st2{fill:#676F7B;}
</style>
<g>
	<g>
		<path class="st0" d="M64.7,68.5c0.6,0,1-0.7,0.7-1.2L52.2,44.4L38.2,68.5H64.7z"/>
		<path class="st1" d="M65.4,18.2c0.3-0.5-0.1-1.2-0.7-1.2l-26.6,0c-1.1,0-2.1,0.6-2.6,1.5L7.4,67.3c-0.3,0.5,0.1,1.2,0.7,1.2h28.3
			l0,0v0L65.4,18.2z"/>
	</g>
</g>
<g>
	<g>
		<path class="st2" d="M70.9,47.4c-0.1-0.1-0.1-0.2-0.1-0.3v-9.2h-3.1c-0.1,0-0.2,0-0.3-0.1c-0.1-0.1-0.1-0.2-0.1-0.3v-1.3
			c0-0.1,0-0.2,0.1-0.3c0.1-0.1,0.2-0.1,0.3-0.1h8.5c0.1,0,0.2,0,0.3,0.1c0.1,0.1,0.1,0.2,0.1,0.3v1.3c0,0.1,0,0.2-0.1,0.3
			c-0.1,0.1-0.2,0.1-0.3,0.1h-3.1v9.2c0,0.1,0,0.2-0.1,0.3c-0.1,0.1-0.2,0.1-0.3,0.1h-1.6C71,47.6,70.9,47.5,70.9,47.4z"/>
		<path class="st2" d="M76.7,46.7c-0.7-0.7-1.1-1.7-1.2-3l0-0.4c0-1.4,0.4-2.5,1.1-3.3c0.7-0.8,1.7-1.2,3-1.2c1.3,0,2.3,0.4,3.1,1.2
			c0.7,0.8,1.1,1.9,1.1,3.2v0.4c0,0.1,0,0.2-0.1,0.3c-0.1,0.1-0.2,0.1-0.3,0.1h-5.5V44c0,0.6,0.2,1.1,0.5,1.5
			c0.3,0.4,0.8,0.6,1.3,0.6c0.6,0,1.2-0.3,1.6-0.8c0.1-0.1,0.2-0.2,0.2-0.2c0.1,0,0.2,0,0.3,0h1.5c0.1,0,0.2,0,0.3,0.1
			c0.1,0.1,0.1,0.1,0.1,0.2c0,0.3-0.2,0.6-0.5,0.9c-0.3,0.4-0.8,0.7-1.4,0.9c-0.6,0.3-1.3,0.4-2.1,0.4
			C78.4,47.7,77.4,47.4,76.7,46.7z M81.5,42.4L81.5,42.4c0-0.7-0.2-1.2-0.5-1.6c-0.3-0.4-0.8-0.6-1.3-0.6c-0.6,0-1,0.2-1.3,0.6
			c-0.3,0.4-0.5,0.9-0.5,1.6v0H81.5z"/>
		<path class="st2" d="M86.2,46.7c-0.7-0.7-1.1-1.6-1.2-2.8l0-0.7l0-0.7c0-1.2,0.4-2.1,1.2-2.8c0.7-0.7,1.7-1,2.9-1
			c0.9,0,1.6,0.2,2.2,0.5c0.6,0.3,1.1,0.7,1.4,1.1c0.3,0.5,0.5,0.9,0.5,1.3c0,0.1,0,0.2-0.1,0.3C93,42,92.9,42,92.8,42h-1.5
			c-0.1,0-0.2,0-0.3-0.1c-0.1-0.1-0.1-0.1-0.2-0.3c-0.2-0.4-0.4-0.7-0.7-0.9c-0.3-0.2-0.6-0.3-1-0.3c-0.6,0-1,0.2-1.3,0.5
			c-0.3,0.4-0.5,0.9-0.5,1.6l0,0.6l0,0.6c0.1,1.4,0.7,2.2,1.8,2.2c0.4,0,0.8-0.1,1.1-0.3c0.3-0.2,0.5-0.5,0.7-0.9
			c0-0.1,0.1-0.2,0.2-0.3c0.1-0.1,0.2-0.1,0.3-0.1h1.5c0.1,0,0.2,0,0.3,0.1c0.1,0.1,0.1,0.2,0.1,0.3c0,0.4-0.2,0.8-0.5,1.3
			c-0.3,0.5-0.7,0.8-1.3,1.2c-0.6,0.3-1.4,0.5-2.3,0.5C87.9,47.7,87,47.4,86.2,46.7z"/>
		<path class="st2" d="M94.3,47.4c-0.1-0.1-0.1-0.2-0.1-0.3V36.1c0-0.1,0-0.2,0.1-0.3c0.1-0.1,0.2-0.1,0.3-0.1h1.5
			c0.1,0,0.2,0,0.3,0.1c0.1,0.1,0.1,0.2,0.1,0.3v3.8c0.7-0.8,1.6-1.2,2.7-1.2c1,0,1.8,0.3,2.5,1c0.6,0.7,0.9,1.6,0.9,2.7v4.7
			c0,0.1,0,0.2-0.1,0.3c-0.1,0.1-0.2,0.1-0.3,0.1h-1.5c-0.1,0-0.2,0-0.3-0.1c-0.1-0.1-0.1-0.2-0.1-0.3v-4.6c0-0.6-0.2-1.2-0.5-1.5
			c-0.3-0.4-0.8-0.5-1.4-0.5c-0.6,0-1,0.2-1.4,0.6c-0.3,0.4-0.5,0.9-0.5,1.5v4.6c0,0.1,0,0.2-0.1,0.3c-0.1,0.1-0.2,0.1-0.3,0.1h-1.5
			C94.5,47.6,94.4,47.5,94.3,47.4z"/>
		<path class="st2" d="M105.2,47.3c-0.6-0.3-1-0.6-1.3-0.9c-0.3-0.3-0.4-0.6-0.4-0.9c0-0.1,0-0.2,0.1-0.3c0.1-0.1,0.2-0.1,0.3-0.1
			h1.4c0.1,0,0.2,0,0.2,0.1c0.1,0,0.2,0.2,0.4,0.3c0.2,0.2,0.4,0.3,0.7,0.4c0.3,0.1,0.5,0.1,0.8,0.1c0.4,0,0.8-0.1,1.1-0.3
			c0.3-0.2,0.4-0.4,0.4-0.7c0-0.2-0.1-0.4-0.2-0.5c-0.1-0.1-0.4-0.3-0.7-0.4c-0.3-0.1-0.8-0.2-1.5-0.4c-0.9-0.2-1.6-0.5-2.1-0.9
			c-0.5-0.4-0.7-1-0.7-1.6c0-0.4,0.1-0.9,0.4-1.3c0.3-0.4,0.7-0.7,1.2-1c0.5-0.3,1.2-0.4,1.9-0.4c0.8,0,1.4,0.1,2,0.4
			c0.5,0.2,1,0.5,1.2,0.9c0.3,0.3,0.4,0.6,0.4,0.9c0,0.1,0,0.2-0.1,0.3c-0.1,0.1-0.2,0.1-0.3,0.1h-1.3c-0.1,0-0.2,0-0.3-0.1
			c-0.1-0.1-0.2-0.2-0.4-0.3c-0.2-0.2-0.4-0.3-0.6-0.4c-0.2-0.1-0.5-0.1-0.8-0.1c-0.4,0-0.7,0.1-1,0.3c-0.2,0.2-0.3,0.4-0.3,0.7
			c0,0.2,0.1,0.4,0.2,0.5c0.1,0.1,0.3,0.3,0.6,0.4c0.3,0.1,0.8,0.2,1.5,0.4c2,0.4,3,1.3,3,2.6c0,0.8-0.3,1.4-1,1.9
			c-0.7,0.5-1.6,0.7-2.9,0.7C106.4,47.7,105.7,47.6,105.2,47.3z"/>
		<path class="st2" d="M113.5,50.6c-0.1-0.1-0.1-0.1-0.1-0.2c0-0.1,0-0.2,0.1-0.3l1.3-3.1l-3.2-7.6c0-0.1-0.1-0.2-0.1-0.2
			c0-0.1,0.1-0.2,0.1-0.3c0.1-0.1,0.2-0.1,0.3-0.1h1.4c0.2,0,0.3,0.1,0.4,0.3l2.2,5.4l2.3-5.4c0.1-0.2,0.3-0.3,0.5-0.3h1.4
			c0.1,0,0.2,0,0.3,0.1c0.1,0.1,0.1,0.1,0.1,0.2c0,0.1,0,0.2-0.1,0.3l-4.7,10.9c-0.1,0.2-0.2,0.3-0.5,0.3h-1.3
			C113.6,50.7,113.5,50.7,113.5,50.6z"/>
		<path class="st2" d="M121.1,47.4c-0.1-0.1-0.1-0.2-0.1-0.3V36.1c0-0.1,0-0.2,0.1-0.3c0.1-0.1,0.2-0.1,0.3-0.1h1.4
			c0.1,0,0.2,0,0.3,0.1c0.1,0.1,0.1,0.2,0.1,0.3v11.1c0,0.1,0,0.2-0.1,0.3c-0.1,0.1-0.2,0.1-0.3,0.1h-1.4
			C121.3,47.6,121.2,47.5,121.1,47.4z"/>
		<path class="st2" d="M127.4,47.4c-0.1-0.1-0.2-0.2-0.2-0.3l-3.1-7.8c0,0,0-0.1,0-0.2c0-0.1,0-0.2,0.1-0.3c0.1-0.1,0.2-0.1,0.2-0.1
			h1.4c0.2,0,0.4,0.1,0.5,0.3l2.2,5.8l2.2-5.8c0-0.1,0.1-0.2,0.1-0.2c0.1-0.1,0.2-0.1,0.3-0.1h1.4c0.1,0,0.2,0,0.3,0.1
			c0.1,0.1,0.1,0.2,0.1,0.3c0,0.1,0,0.1,0,0.2l-3.1,7.8c-0.1,0.3-0.3,0.4-0.6,0.4h-1.3C127.6,47.6,127.5,47.5,127.4,47.4z"/>
		<path class="st2" d="M134.5,47.4c-0.5-0.2-0.8-0.5-1.1-0.9c-0.3-0.4-0.4-0.8-0.4-1.3c0-0.8,0.3-1.4,0.9-1.8c0.6-0.5,1.5-0.8,2.5-1
			l2.3-0.3v-0.4c0-0.5-0.1-0.8-0.4-1.1c-0.2-0.2-0.6-0.4-1.2-0.4c-0.4,0-0.7,0.1-0.9,0.2c-0.2,0.1-0.4,0.3-0.5,0.4
			c-0.1,0.1-0.2,0.2-0.3,0.3c0,0.1-0.1,0.2-0.3,0.2h-1.3c-0.1,0-0.2,0-0.3-0.1c-0.1-0.1-0.1-0.2-0.1-0.3c0-0.3,0.1-0.6,0.4-0.9
			c0.3-0.4,0.7-0.7,1.2-0.9c0.5-0.3,1.2-0.4,2-0.4c1.3,0,2.3,0.3,2.9,0.9c0.6,0.6,0.9,1.4,0.9,2.3v5.2c0,0.1,0,0.2-0.1,0.3
			c-0.1,0.1-0.2,0.1-0.3,0.1h-1.4c-0.1,0-0.2,0-0.3-0.1c-0.1-0.1-0.1-0.2-0.1-0.3v-0.7c-0.2,0.4-0.6,0.6-1,0.9
			c-0.4,0.2-1,0.3-1.7,0.3C135.5,47.7,135,47.6,134.5,47.4z M138.1,45.5c0.4-0.4,0.6-1,0.6-1.7v-0.3l-1.7,0.3
			c-1.3,0.2-1.9,0.6-1.9,1.3c0,0.4,0.1,0.6,0.4,0.8c0.3,0.2,0.6,0.3,1.1,0.3C137.3,46.1,137.8,45.9,138.1,45.5z"/>
		<path class="st2" d="M142.5,47.4c-0.1-0.1-0.1-0.2-0.1-0.3v-7.9c0-0.1,0-0.2,0.1-0.3c0.1-0.1,0.2-0.1,0.3-0.1h1.4
			c0.1,0,0.2,0,0.3,0.1c0.1,0.1,0.1,0.2,0.1,0.3V40c0.7-0.8,1.6-1.3,2.8-1.3c1,0,1.8,0.3,2.4,1c0.6,0.7,0.9,1.6,0.9,2.8v4.7
			c0,0.1,0,0.2-0.1,0.3c-0.1,0.1-0.2,0.1-0.3,0.1h-1.5c-0.1,0-0.2,0-0.3-0.1c-0.1-0.1-0.1-0.2-0.1-0.3v-4.6c0-0.6-0.2-1.2-0.5-1.5
			c-0.3-0.4-0.8-0.5-1.4-0.5c-0.6,0-1,0.2-1.4,0.6c-0.3,0.4-0.5,0.9-0.5,1.5v4.6c0,0.1,0,0.2-0.1,0.3c-0.1,0.1-0.2,0.1-0.3,0.1h-1.5
			C142.6,47.6,142.6,47.5,142.5,47.4z"/>
		<path class="st2" d="M152.1,37.3c-0.1-0.1-0.1-0.2-0.1-0.3v-1.2c0-0.1,0-0.2,0.1-0.3c0.1-0.1,0.2-0.1,0.3-0.1h1.5
			c0.1,0,0.2,0,0.3,0.1c0.1,0.1,0.1,0.2,0.1,0.3V37c0,0.1,0,0.2-0.1,0.3c-0.1,0.1-0.2,0.1-0.3,0.1h-1.5
			C152.3,37.4,152.2,37.4,152.1,37.3z M152.2,47.4c-0.1-0.1-0.1-0.2-0.1-0.3v-7.9c0-0.1,0-0.2,0.1-0.3c0.1-0.1,0.2-0.1,0.3-0.1h1.4
			c0.1,0,0.2,0,0.3,0.1c0.1,0.1,0.1,0.2,0.1,0.3v7.9c0,0.1,0,0.2-0.1,0.3c-0.1,0.1-0.2,0.1-0.3,0.1h-1.4
			C152.3,47.6,152.2,47.5,152.2,47.4z"/>
		<path class="st2" d="M156.7,47.4c-0.5-0.2-0.8-0.5-1.1-0.9c-0.3-0.4-0.4-0.8-0.4-1.3c0-0.8,0.3-1.4,0.9-1.8c0.6-0.5,1.5-0.8,2.5-1
			l2.3-0.3v-0.4c0-0.5-0.1-0.8-0.4-1.1c-0.2-0.2-0.6-0.4-1.2-0.4c-0.4,0-0.7,0.1-0.9,0.2c-0.2,0.1-0.4,0.3-0.5,0.4
			c-0.1,0.1-0.2,0.2-0.3,0.3c0,0.1-0.1,0.2-0.3,0.2h-1.3c-0.1,0-0.2,0-0.3-0.1c-0.1-0.1-0.1-0.2-0.1-0.3c0-0.3,0.1-0.6,0.4-0.9
			c0.3-0.4,0.7-0.7,1.2-0.9c0.5-0.3,1.2-0.4,2-0.4c1.3,0,2.3,0.3,2.9,0.9c0.6,0.6,0.9,1.4,0.9,2.3v5.2c0,0.1,0,0.2-0.1,0.3
			c-0.1,0.1-0.2,0.1-0.3,0.1h-1.4c-0.1,0-0.2,0-0.3-0.1c-0.1-0.1-0.1-0.2-0.1-0.3v-0.7c-0.2,0.4-0.6,0.6-1,0.9
			c-0.4,0.2-1,0.3-1.7,0.3C157.7,47.7,157.2,47.6,156.7,47.4z M160.3,45.5c0.4-0.4,0.6-1,0.6-1.7v-0.3l-1.7,0.3
			c-1.3,0.2-1.9,0.6-1.9,1.3c0,0.4,0.1,0.6,0.4,0.8c0.3,0.2,0.6,0.3,1.1,0.3C159.4,46.1,159.9,45.9,160.3,45.5z"/>
	</g>
</g>
</svg>
