<?xml version="1.0" encoding="utf-8"?>
<!-- Generator: Adobe Illustrator 16.0.0, SVG Export Plug-In . SVG Version: 6.00 Build 0)  -->
<!DOCTYPE svg PUBLIC "-//W3C//DTD SVG 1.1//EN" "http://www.w3.org/Graphics/SVG/1.1/DTD/svg11.dtd">
<svg version="1.1" xmlns="http://www.w3.org/2000/svg" xmlns:xlink="http://www.w3.org/1999/xlink" x="0px" y="0px"  viewBox="0 0 1440 500" enable-background="new 0 0 1440 500" xml:space="preserve">
<g id="Layer_1">
	<g>
		<rect x="626.8" y="124.8" fill="none" width="270.4" height="66.7"/>
		<path fill="#FFFFFF" d="M635,145.6c0-0.3-0.1-0.8-0.2-1.6c-0.1-0.8-0.3-1.9-0.6-3.2c-1.6,0.5-2.9,0.7-3.9,0.6
			c-1-0.1-1.7-0.3-2-0.7s-0.5-0.8-0.3-1.4c0.2-0.5,0.6-0.9,1.2-1.3c0.6-0.4,1.5-0.6,2.6-0.6c1.1,0,2.3,0.2,3.8,0.7
			c0.1-0.1,0.2-0.4,0.2-0.8c0.1-0.4,0.1-0.9,0.2-1.4c0.1-0.6,0.2-1.1,0.2-1.7c0.1-0.6,0.2-1.1,0.2-1.7c0.1-0.5,0.1-0.9,0.2-1.3
			c0.1-0.3,0.1-0.5,0.2-0.5c0.2-0.1,0.4-0.2,0.7-0.2c0.3,0,0.7-0.1,1-0.1c0.4,0,0.8-0.1,1.3-0.1l0.5,6.4h2.9c0-0.1,0-0.3,0-0.7
			c0-0.4,0.1-0.9,0.1-1.4s0.2-1.2,0.3-1.8c0.1-0.6,0.3-1.2,0.5-1.8c0.2-0.5,0.4-1,0.7-1.4c0.2-0.4,0.5-0.5,0.9-0.5
			c0.1,0,0.3,0,0.5,0c0.2,0,0.4,0,0.6,0.1c0.2,0,0.4,0.1,0.5,0.3c0.1,0.1,0.2,0.3,0.2,0.5v5.9c0.3,0.1,0.7,0.2,1.2,0.3
			c0.5,0.1,1,0.2,1.6,0.3c0.6,0.1,1.2,0.2,1.8,0.3s1.1,0.2,1.6,0.4c0.5,0.1,0.9,0.3,1.2,0.5s0.5,0.4,0.5,0.6
			c-0.2,0.5-0.6,0.9-1.1,1.2s-1.2,0.4-1.9,0.6c-0.7,0.1-1.4,0.3-2.1,0.4c-0.7,0.1-1.3,0.3-1.7,0.5c-0.4,0.2-0.7,0.6-0.7,1
			c-0.1,0.4,0.2,1.1,0.8,1.9c0.3,0,0.7,0,1.1-0.1c0.4-0.1,0.9-0.1,1.4-0.2c0.5,0,0.9-0.1,1.4-0.1s0.9,0.1,1.2,0.2
			c0.4,0.1,0.7,0.3,0.9,0.5c0.2,0.3,0.4,0.6,0.4,1.1c0,0.4-0.3,0.7-0.8,1c-0.5,0.3-1.1,0.5-1.8,0.7s-1.3,0.3-2,0.4
			c-0.6,0.1-1.1,0.2-1.4,0.3c0.1,0.4,0.2,1,0.3,1.7s0.1,1.3,0.1,2s-0.2,1.2-0.5,1.6c-0.3,0.5-0.8,0.7-1.5,0.7
			c-0.5-0.2-0.9-0.4-1.2-0.8s-0.4-0.8-0.6-1.2c-0.1-0.4-0.3-0.9-0.4-1.3c-0.1-0.4-0.3-0.8-0.6-1.1c-0.3-0.3-0.7-0.4-1.2-0.5
			c-0.5,0-1.2,0.1-2.2,0.4c0,0.5,0,1,0,1.6c0,0.6-0.1,1.2-0.2,1.7c-0.1,0.6-0.3,1-0.7,1.4c-0.3,0.4-0.8,0.6-1.5,0.6
			c-0.2,0-0.5-0.2-0.8-0.6c-0.3-0.4-0.6-0.9-0.9-1.4c-0.3-0.6-0.7-1.1-1-1.7c-0.3-0.6-0.7-1-1-1.3c-1.6-0.2-2.8-0.3-3.6-0.5
			c-0.8-0.2-1.4-0.4-1.7-0.6s-0.4-0.4-0.3-0.7c0.1-0.2,0.4-0.4,0.7-0.6C631.4,146.6,632.9,146.1,635,145.6z M640,143.4
			c0,0.2,0.1,0.4,0.2,0.5c0.1,0.1,0.3,0.2,0.5,0.3c0.2,0.1,0.4,0.1,0.6,0.1c0.2,0,0.4,0,0.5,0c0.2,0,0.5,0,0.8-0.1
			c0.3,0,0.6-0.1,0.8-0.2c0.3-0.1,0.5-0.2,0.7-0.4c0.2-0.2,0.3-0.4,0.3-0.7c0-0.6-0.1-1.1-0.4-1.6c-0.3-0.5-0.7-0.7-1.3-0.7
			c-0.3,0-0.6,0.1-0.9,0.2s-0.6,0.3-0.8,0.6s-0.4,0.5-0.6,0.8C640.1,142.8,640,143.1,640,143.4z"/>
		<path fill="#FFFFFF" d="M654.2,143.4c0-1.1,0.2-2.3,0.7-3.4c0.5-1.2,1.1-2.3,1.9-3.3s1.7-1.8,2.8-2.4c1.1-0.6,2.2-1,3.3-1
			c0.6,0,1.2,0.1,1.8,0.3s1.1,0.5,1.6,0.9c0.5,0.4,0.9,0.9,1.2,1.4c0.3,0.6,0.4,1.2,0.4,1.8c-0.5,0-0.9-0.1-1.3-0.2
			c-0.4-0.1-0.7-0.2-1.1-0.4c-0.4-0.1-0.7-0.3-1.1-0.4s-0.7-0.2-1.2-0.2c-1.1,0-1.9,0.3-2.6,0.8c-0.7,0.5-1.2,1.2-1.6,2
			s-0.7,1.7-0.8,2.6c-0.1,0.9-0.2,1.8-0.2,2.6c0,0.1,0,0.4,0,0.8c0,0.4,0,0.7,0,1.1c0,0.4,0,0.8,0,1.1c0,0.4,0,0.6,0.1,0.8
			c0.3,0.6,0.6,1.1,0.8,1.5c0.3,0.3,0.6,0.6,0.9,0.8c0.3,0.2,0.7,0.3,1,0.3c0.4,0,0.8,0.1,1.3,0.1c0.7,0,1.3-0.1,1.8-0.3
			c0.5-0.2,1-0.4,1.4-0.7c0.4-0.3,0.8-0.6,1.2-1c0.4-0.4,0.8-0.7,1.2-1c0.4-0.3,0.9-0.5,1.4-0.7c0.5-0.2,1.1-0.3,1.8-0.3
			c0,1.3-0.2,2.4-0.7,3.4c-0.5,1-1.1,1.8-1.9,2.5c-0.8,0.7-1.8,1.2-2.9,1.6c-1.1,0.4-2.3,0.6-3.6,0.6c-1.2,0-2.4-0.4-3.3-1.2
			c-1-0.8-1.8-1.9-2.5-3.1c-0.7-1.2-1.2-2.5-1.6-3.8C654.4,145.7,654.2,144.5,654.2,143.4z"/>
		<path fill="#FFFFFF" d="M674.4,133.1c0-0.8-0.1-1.5-0.2-2.2c-0.1-0.7-0.1-1.4-0.1-1.9c0.1-0.6,0.3-1,0.6-1.4
			c0.4-0.3,1-0.5,1.9-0.5c0.3,0.6,0.6,1.5,0.8,2.7c0.3,1.2,0.5,2.6,0.8,4.2c0.3,1.6,0.5,3.3,0.7,5.2c0.2,1.9,0.5,3.7,0.7,5.6
			c0.2,1.9,0.4,3.7,0.5,5.5c0.1,1.8,0.2,3.4,0.3,4.9c-0.8,0.6-1.5,0.6-2.1,0.1s-1-1.3-1.3-2.5c-0.3-1.2-0.6-2.6-0.8-4.3
			c-0.2-1.7-0.4-3.5-0.5-5.3c-0.2-1.8-0.4-3.7-0.6-5.4C675.1,136,674.8,134.5,674.4,133.1z"/>
		<path fill="#FFFFFF" d="M682.6,139.3c0-0.2,0-0.4,0-0.8c0-0.4,0-0.8,0-1.3c0-0.4,0-0.9,0-1.2c0-0.4,0-0.7,0-0.8
			c0.2-0.3,0.4-0.6,0.7-0.9c0.2-0.3,0.5-0.5,0.8-0.6c0.3-0.1,0.6-0.1,0.9-0.1c0.3,0.1,0.7,0.3,1,0.8v0.3v0.5c0,0.1-0.1,0.4-0.2,0.9
			c-0.1,0.5-0.2,1-0.3,1.6s-0.2,1.1-0.3,1.6c-0.1,0.5-0.1,0.8-0.1,0.9c0,0.5,0,1.1,0.1,1.8c0.1,0.7,0.2,1.5,0.4,2.3
			c0.2,0.8,0.5,1.6,0.8,2.4c0.3,0.8,0.7,1.5,1.1,2.2c0.4,0.6,0.9,1.2,1.4,1.6c0.5,0.4,1.1,0.6,1.8,0.6c0.8,0,1.6-0.2,2.2-0.7
			c0.6-0.4,1.2-1,1.7-1.7c0.5-0.7,0.9-1.5,1.2-2.4c0.3-0.9,0.6-1.8,0.7-2.7c0.2-0.9,0.3-1.8,0.4-2.6c0.1-0.8,0.1-1.6,0.1-2.2
			c0-0.6,0-1.2-0.1-1.8c-0.1-0.6-0.2-1.1-0.3-1.7c-0.1-0.6-0.2-1.1-0.3-1.6c-0.1-0.5-0.1-1.1-0.1-1.6c0-0.5,0.2-0.8,0.5-1
			c0.4-0.2,0.8-0.3,1.2-0.3c0.6,0,1,0.2,1.4,0.5c0.3,0.3,0.6,0.7,0.8,1.2c0.2,0.5,0.3,1.1,0.4,1.7s0.1,1.3,0.1,1.9
			c0,0.6,0,1.2,0,1.8c0,0.6,0,1,0,1.4c0,0.9-0.1,1.9-0.2,3s-0.4,2.3-0.7,3.5c-0.3,1.2-0.7,2.4-1.2,3.5c-0.5,1.1-1.1,2.2-1.8,3.1
			c-0.7,0.9-1.5,1.6-2.4,2.2c-0.9,0.6-1.9,0.8-3,0.8c-1.2,0-2.2-0.3-3.1-0.8s-1.6-1.3-2.3-2.2c-0.6-0.9-1.1-2-1.5-3.1
			c-0.4-1.2-0.7-2.3-0.9-3.5c-0.2-1.2-0.4-2.3-0.5-3.4C682.6,141,682.6,140.1,682.6,139.3z"/>
		<path fill="#FFFFFF" d="M693.4,167.5c0.8,0,1.4,0.2,2.1,0.6s1.3,0.8,2,1.3c0.7,0.5,1.4,0.9,2.2,1.3s1.8,0.6,2.8,0.6
			c1.1,0,2.1-0.1,3.1-0.4c1-0.3,1.9-0.7,2.7-1.2s1.5-1.3,2-2.2c0.5-0.9,0.7-2,0.7-3.2c0-2-0.2-4.1-0.5-6.3c-0.3-2.2-0.7-4.4-1.2-6.5
			c-0.5-2.2-1-4.3-1.6-6.3c-0.6-2.1-1.1-4-1.6-5.7c0,0,0-0.1,0-0.2c0-0.1,0-0.2,0-0.2c0-0.5,0.2-0.9,0.5-1.1
			c0.4-0.2,0.8-0.3,1.2-0.3c0.1,0,0.2,0,0.5,0c0.2,0,0.3,0,0.4,0c0.8,2,1.6,4.1,2.3,6.2c0.7,2.1,1.3,4.3,1.9,6.5
			c0.5,2.2,1,4.4,1.3,6.6s0.5,4.4,0.5,6.5c0,1.7-0.3,3.3-0.9,4.6c-0.6,1.4-1.4,2.5-2.4,3.5c-1,1-2.3,1.7-3.7,2.2
			c-1.4,0.5-3,0.8-4.7,0.8c-1.1,0-2.2-0.1-3.3-0.4c-1.1-0.2-2.1-0.6-3-1.2c-0.9-0.6-1.6-1.3-2.2-2.2
			C693.7,169.9,693.4,168.8,693.4,167.5z M702.6,128c0-0.1,0-0.3,0-0.5c0-0.2,0-0.5,0.1-0.7c0.1-0.2,0.2-0.5,0.3-0.6
			c0.1-0.2,0.3-0.3,0.6-0.3c0.4,0,0.8,0.1,1,0.2c0.2,0.1,0.4,0.2,0.5,0.4s0.2,0.4,0.2,0.6c0,0.2,0,0.5,0,0.8c0,0.2,0,0.5,0,0.7
			c0,0.3-0.1,0.5-0.2,0.7c-0.1,0.2-0.2,0.4-0.4,0.6c-0.2,0.2-0.4,0.2-0.7,0.2c-0.3,0-0.6-0.1-0.7-0.2c-0.2-0.1-0.3-0.3-0.4-0.5
			c-0.1-0.2-0.2-0.4-0.2-0.7C702.6,128.5,702.6,128.2,702.6,128z"/>
		<path fill="#FFFFFF" d="M713.7,135c0-0.2,0-0.5,0-0.7c0-0.2,0.1-0.5,0.2-0.7c0.1-0.2,0.2-0.4,0.4-0.5c0.2-0.1,0.4-0.2,0.8-0.2
			c0,0,0.1,0,0.1,0c0,0,0.1,0,0.1,0c0.1,0,0.1,0,0.2,0c0.5,0.7,1,1.5,1.3,2.6c0.4,1.1,0.7,2.2,1,3.4c0.3,1.2,0.7,2.4,1.1,3.6
			c0.4,1.2,0.9,2.3,1.5,3.3c0.6,1,1.4,1.7,2.3,2.3c0.9,0.6,2.1,0.8,3.4,0.8c0.6,0,1-0.3,1.2-1c0.2-0.7,0.3-1.5,0.3-2.5
			s0-2.1-0.1-3.4c-0.1-1.2-0.1-2.4,0-3.5c0.1-1.1,0.3-2.1,0.6-2.9s0.9-1.4,1.7-1.7c0.4,0.7,0.6,1.7,0.8,3.2s0.4,3.1,0.5,5
			s0.2,3.9,0.2,6.1c0,2.2-0.1,4.4-0.2,6.6s-0.3,4.3-0.5,6.3s-0.4,3.8-0.7,5.3s-0.6,2.7-0.9,3.6c-0.3,0.9-0.7,1.2-1.1,1.1
			c-0.6-0.5-1-1.2-1.3-2c-0.3-0.8-0.5-1.8-0.6-2.8s-0.2-2.1-0.1-3.2c0-1.1,0.1-2.3,0.1-3.4c0.1-1.1,0.1-2.3,0.2-3.4s0.1-2.1,0.1-3
			c-0.9,0.1-1.9,0-2.8-0.4c-1-0.4-1.9-0.9-2.9-1.7c-0.9-0.8-1.8-1.7-2.7-2.8c-0.8-1.1-1.6-2.3-2.2-3.7s-1.1-2.9-1.5-4.5
			C713.9,138.4,713.7,136.8,713.7,135z"/>
		<path fill="#FFFFFF" d="M732.8,135.5c0-0.1,0-0.1,0-0.2c0,0,0-0.1,0-0.2c0.1-0.1,0.2-0.3,0.5-0.5s0.3-0.3,0.4-0.3h7.9
			c0-0.3,0-0.7-0.1-1.4c-0.1-0.6-0.2-1.3-0.2-2.1c-0.1-0.8-0.1-1.5-0.1-2.4s0.1-1.5,0.3-2.2s0.5-1.2,0.9-1.7c0.4-0.4,1-0.7,1.8-0.7
			c0,2.6,0.2,4.7,0.6,6.3c0.4,1.6,0.9,2.8,1.5,3.7c0.6,0.9,1.3,1.4,2.1,1.7c0.8,0.3,1.6,0.4,2.4,0.3c0.8,0,1.6-0.2,2.4-0.4
			s1.5-0.4,2.1-0.4s1.1,0,1.5,0.2c0.4,0.2,0.6,0.7,0.6,1.4c0,0.5-0.1,0.9-0.4,1.2c-0.3,0.2-0.7,0.4-1.4,0.5c-0.2,0-0.6,0.1-1,0.2
			c-0.5,0.1-1,0.1-1.6,0.2c-0.6,0.1-1.2,0.1-1.9,0.2c-0.7,0.1-1.3,0.1-1.9,0.2c-0.6,0-1.2,0.1-1.7,0.1c-0.5,0-0.9,0-1.1,0
			c0,0.1,0,0.3,0,0.7s0,0.5,0,0.6c0,1.1,0.2,2.3,0.5,3.3c0.4,1.1,0.8,2.2,1.2,3.2c0.4,1.1,0.8,2.1,1.2,3.2c0.4,1.1,0.5,2.2,0.5,3.3
			c0,0.2,0,0.4-0.1,0.7c0,0.2-0.1,0.4-0.2,0.6s-0.3,0.3-0.5,0.4s-0.5,0.1-0.9-0.1c-1-0.3-1.7-0.8-2.2-1.7c-0.5-0.9-0.8-1.9-1.1-3.1
			c-0.2-1.2-0.4-2.4-0.5-3.8c-0.1-1.3-0.2-2.6-0.4-3.7s-0.4-2.1-0.8-3c-0.4-0.8-1-1.3-1.8-1.5l-7.6-1.7c-0.1,0-0.2-0.1-0.5-0.3
			c-0.2-0.2-0.3-0.4-0.4-0.5c0,0,0-0.1,0-0.2C732.8,135.7,732.8,135.6,732.8,135.5z"/>
		<path fill="#FFFFFF" d="M758.8,144.3c0-1.4,0.2-2.8,0.5-4.2s0.9-2.7,1.6-3.8s1.7-2,2.9-2.7s2.6-1.1,4.3-1.1c1,0,1.8,0.2,2.5,0.5
			s1.3,0.8,1.8,1.4c0.5,0.6,0.9,1.2,1.1,2s0.4,1.6,0.4,2.4c0,1.3-0.3,2.6-0.9,3.8c-0.6,1.3-1.4,2.4-2.5,3.3s-2.2,1.7-3.5,2.1
			c-1.3,0.5-2.7,0.6-4.1,0.3c0,0.8,0.3,1.4,0.8,1.8s1.1,0.8,1.7,1c0.7,0.2,1.4,0.4,2.1,0.5s1.4,0.1,2,0.1c0.6,0,1.1-0.1,1.7-0.2
			s1-0.2,1.6-0.4c0.5-0.1,1-0.2,1.6-0.4s1.1-0.2,1.7-0.2c0.2,0,0.5,0,0.7,0c0.2,0,0.5,0.1,0.7,0.2c0.2,0.1,0.4,0.2,0.5,0.4
			c0.1,0.2,0.2,0.4,0.2,0.7c0,0.5-0.2,0.9-0.5,1.2c-0.4,0.3-0.8,0.6-1.4,0.8c-0.6,0.2-1.2,0.4-1.8,0.5c-0.7,0.1-1.3,0.2-2,0.3
			s-1.2,0.1-1.8,0.1c-0.5,0-0.9,0-1.2,0c-1.7,0-3.2-0.3-4.5-0.8s-2.4-1.3-3.4-2.2s-1.6-2.1-2.1-3.4C759,147.5,758.8,146,758.8,144.3
			z M762.9,141.8c0,0.9,0.1,1.6,0.4,2c0.2,0.4,0.8,0.6,1.8,0.6c0.7,0,1.3-0.1,2-0.4s1.2-0.6,1.8-1c0.5-0.4,0.9-1,1.3-1.6
			s0.5-1.2,0.5-2c0-0.4,0-0.8-0.1-1.2s-0.2-0.8-0.4-1.2s-0.5-0.6-0.8-0.9c-0.3-0.2-0.8-0.3-1.3-0.3c-0.8,0-1.5,0.2-2.1,0.5
			s-1.2,0.8-1.6,1.4s-0.8,1.2-1,1.9C763.1,140.4,762.9,141.1,762.9,141.8z"/>
		<path fill="#FFFFFF" d="M779.8,143.4c0-1.1,0.2-2.3,0.7-3.4s1.1-2.3,1.9-3.3s1.7-1.8,2.8-2.4c1.1-0.6,2.2-1,3.3-1
			c0.6,0,1.2,0.1,1.8,0.3s1.1,0.5,1.6,0.9s0.9,0.9,1.2,1.4c0.3,0.6,0.4,1.2,0.4,1.8c-0.5,0-0.9-0.1-1.3-0.2s-0.7-0.2-1.1-0.4
			s-0.7-0.3-1.1-0.4s-0.7-0.2-1.2-0.2c-1.1,0-1.9,0.3-2.6,0.8c-0.7,0.5-1.2,1.2-1.6,2s-0.7,1.7-0.8,2.6c-0.1,0.9-0.2,1.8-0.2,2.6
			c0,0.1,0,0.4,0,0.8c0,0.4,0,0.7,0,1.1c0,0.4,0,0.8,0,1.1c0,0.4,0,0.6,0.1,0.8c0.3,0.6,0.6,1.1,0.8,1.5c0.3,0.3,0.6,0.6,0.9,0.8
			c0.3,0.2,0.7,0.3,1,0.3s0.8,0.1,1.3,0.1c0.7,0,1.3-0.1,1.8-0.3c0.5-0.2,1-0.4,1.4-0.7c0.4-0.3,0.8-0.6,1.2-1s0.8-0.7,1.2-1
			c0.4-0.3,0.9-0.5,1.4-0.7c0.5-0.2,1.1-0.3,1.8-0.3c0,1.3-0.2,2.4-0.7,3.4c-0.5,1-1.1,1.8-1.9,2.5s-1.8,1.2-2.9,1.6
			c-1.1,0.4-2.3,0.6-3.6,0.6c-1.2,0-2.3-0.4-3.3-1.2c-1-0.8-1.8-1.9-2.5-3.1c-0.7-1.2-1.2-2.5-1.6-3.8
			C780,145.7,779.8,144.5,779.8,143.4z"/>
		<path fill="#FFFFFF" d="M800.1,129.8c0-0.3,0-0.6,0.1-1.1c0.1-0.4,0.2-0.8,0.4-1.2s0.4-0.7,0.7-1s0.6-0.4,1-0.4c0,0,0.1,0,0.2,0
			c0.1,0,0.2,0,0.2,0c0.4,1.6,0.7,3.2,0.8,4.8c0.1,1.6,0,3.1-0.1,4.6c-0.1,1.5-0.3,2.9-0.6,4.3c-0.3,1.4-0.5,2.7-0.7,3.8
			c-0.2,1.2-0.3,2.2-0.3,3.2s0.1,1.7,0.4,2.4c0-0.4-0.1-0.9-0.1-1.5c0-0.6,0-1.2,0.2-1.8s0.3-1.3,0.6-1.9c0.3-0.6,0.7-1.2,1.2-1.7
			s1.2-0.9,2-1.2c0.8-0.3,1.8-0.4,3.1-0.4c1.3,0,2.4,0.2,3.3,0.7c0.9,0.4,1.7,1,2.3,1.8c0.6,0.8,1.1,1.7,1.4,2.7
			c0.3,1,0.4,2.1,0.4,3.3c0,0.6,0,1.2,0,1.9c0,0.7-0.1,1.3-0.3,1.9c-0.2,0.6-0.5,1.1-0.9,1.5c-0.4,0.4-1.1,0.6-1.9,0.6
			c0-0.4,0-1,0.1-1.7c0.1-0.7,0.1-1.5,0.1-2.3s0-1.6-0.1-2.5c-0.1-0.8-0.2-1.6-0.5-2.3s-0.7-1.2-1.2-1.6s-1.2-0.6-2.1-0.6
			c-0.3,0-0.7,0-1.2,0.1s-0.9,0.2-1.4,0.4s-0.9,0.5-1.4,0.9s-0.8,1-1.1,1.8c-0.3,0.8-0.4,1.7-0.5,2.8c0,1.1,0.1,2.5,0.4,4.2
			c-0.2,0.5-0.4,0.7-0.7,0.8s-0.6,0.1-1,0.1c-0.8,0-1.5-0.3-2.1-0.9c-0.5-0.6-0.9-1.4-1.2-2.4s-0.5-2.1-0.6-3.4s-0.1-2.7-0.1-4.1
			c0-1.4,0.1-2.9,0.2-4.3c0.1-1.5,0.2-2.9,0.4-4.2c0.1-1.3,0.2-2.5,0.4-3.6C800.1,131.3,800.1,130.5,800.1,129.8z"/>
	</g>
	<g>
		<rect x="500" y="196.5" fill="none" width="903.7" height="153.1"/>
		<path fill="#FFFFFF" d="M528.9,209c-8.6,0-15.3,6.7-15.3,15.5c0,8.8,6.7,15.6,15.3,15.6c4.5,0,9.5-2.3,13.1-5.9l6.7,7.3
			c-5.3,5.5-13,9-20.4,9c-15,0-26.4-11.2-26.4-25.8c0-14.5,11.6-25.5,26.9-25.5c7.3,0,14.9,3.2,19.9,8.4l-6.6,8.1
			C538.6,211.6,533.6,209,528.9,209z"/>
		<path fill="#FFFFFF" d="M566.9,199.5V240h21.6v9.9h-33v-50.4H566.9z"/>
		<path fill="#FFFFFF" d="M617.2,240.5c6.8,0,11.2-4.4,11.2-11.7v-29.3h11.4v29.3c0,13.3-8.7,21.6-22.6,21.6
			c-14,0-22.9-8.3-22.9-21.6v-29.3h11.4v29.3C605.7,236.1,610.4,240.5,617.2,240.5z"/>
		<path fill="#FFFFFF" d="M660.1,250.4c-6.8,0-12.2-2.9-16.5-7.8l5.3-8.1c3.5,3.7,7.6,5.6,10.7,5.6c3.7,0,6-2.3,6-6.6v-24.3h-17.4
			v-9.6H677v34.3C677,244.4,670.5,250.4,660.1,250.4z"/>
		<path fill="#FFFFFF" d="M733,233.7v16.3h-11.4v-16L703,199.5h11.4l12.9,22.6l12.6-22.6h11.4L733,233.7z"/>
		<path fill="#FFFFFF" d="M765.1,244.8c0,3.3-2.3,5.8-5.5,5.8c-3.2,0-5.5-2.4-5.5-5.8c0-3.4,2.4-5.7,5.5-5.7
			C762.8,239.1,765.1,241.4,765.1,244.8z"/>
		<path fill="#FFFFFF" d="M832.3,199.5v9.6h-15.4v40.8h-11.4v-40.8h-15.3v-9.6H832.3z"/>
		<path fill="#FFFFFF" d="M876.8,199.5v9.4h-27v10.9h24.3v9.4h-24.3v11.2h27.8v9.4h-39.2v-50.4H876.8z"/>
		<path fill="#FFFFFF" d="M909.9,209c-8.6,0-15.3,6.7-15.3,15.5c0,8.8,6.7,15.6,15.3,15.6c4.5,0,9.5-2.3,13.1-5.9l6.7,7.3
			c-5.3,5.5-13,9-20.4,9c-15,0-26.4-11.2-26.4-25.8c0-14.5,11.6-25.5,26.9-25.5c7.3,0,14.9,3.2,19.9,8.4l-6.6,8.1
			C919.6,211.6,914.6,209,909.9,209z"/>
		<path fill="#FFFFFF" d="M947.9,199.5v21h22.8v-21h11.4v50.4h-11.4v-19.9h-22.8v19.9h-11.4v-50.4H947.9z"/>
	</g>
	<g>
		<rect x="286.9" y="287.6" fill="none" width="1022.2" height="121"/>
		<path fill="#FFFFFF" d="M297,289.6v28.5h14.5v5.1h-20.2v-33.6H297z"/>
		<path fill="#FFFFFF" d="M339.1,312.6h-19.3c0.9,3.9,3.9,6.4,7.9,6.4c2.8,0,5.3-1.1,7.2-3l2.9,3.1c-2.5,2.7-6.1,4.3-10.6,4.3
			c-7.9,0-13.1-5.2-13.1-12.9c0-7.7,5.3-13,12.9-13C336.1,297.5,339.8,303.4,339.1,312.6z M334.3,308.6c-0.2-4.1-2.9-6.6-7.1-6.6
			c-4,0-6.9,2.5-7.5,6.6H334.3z"/>
		<path fill="#FFFFFF" d="M359.3,321.6c-2,1.2-4.1,1.9-6.3,1.9c-3.8,0-7.2-2.2-7.2-7.4v-13.3h-3.6v-4.1h3.6v-7h5.5v7h7.5v4.1h-7.5
			V315c0,2.6,1,3.5,2.7,3.5c1.2,0,2.4-0.4,3.8-1.1L359.3,321.6z"/>
		<path fill="#FFFFFF" d="M368.5,292.7c0,1-0.3,1.8-0.9,2.5l-2.7,4.1H362l1.8-4.2c-0.9-0.6-1.3-1.5-1.3-2.5c0-1.8,1.2-3.1,3-3.1
			C367.1,289.6,368.5,290.7,368.5,292.7z"/>
		<path fill="#FFFFFF" d="M381.9,301.9c-2.2,0-3.7,0.7-3.7,2.5c0,4.7,13.6,2.2,13.5,11.4c0,5.2-4.7,7.6-9.8,7.6
			c-3.7,0-7.7-1.2-10.3-3.6l2-3.9c2.2,2,5.8,3.2,8.5,3.2c2.4,0,4.2-0.8,4.2-2.7c0-5.2-13.4-2.3-13.4-11.5c0-5.2,4.5-7.4,9.4-7.4
			c3.2,0,6.6,1,8.9,2.6l-2,4.1C386.9,302.7,384.1,301.9,381.9,301.9z"/>
		<path fill="#FFFFFF" d="M422.3,302.4c-4.4,0-7.6,3.3-7.6,8.2c0,4.8,3.2,8.2,7.6,8.2c3.2,0,5.8-1.1,7.5-3.1l3.1,3.1
			c-2.3,3-6,4.8-10.8,4.8c-7.6,0-12.9-5.2-12.9-12.9c0-7.7,5.3-13,12.9-13c4.6,0,8.2,1.5,10.6,4.2l-3,3.6
			C427.8,303.4,425.4,302.3,422.3,302.4z"/>
		<path fill="#FFFFFF" d="M461.9,310.4c0,7.7-5.4,13-13.3,13c-7.9,0-13.3-5.3-13.3-13c0-7.7,5.4-12.9,13.3-12.9
			C456.5,297.5,461.9,302.7,461.9,310.4z M440.8,310.5c0,4.9,3.2,8.3,7.8,8.3c4.6,0,7.8-3.4,7.8-8.3c0-4.9-3.2-8.3-7.8-8.3
			C444,302.2,440.8,305.6,440.8,310.5z"/>
		<path fill="#FFFFFF" d="M492.1,307.4v15.9h-5.5v-14.4c0-3.8-2.3-6.2-6.1-6.2c-4.2,0-6.9,3-7.2,7v13.6h-5.5v-25.5h5.5v4.9
			c1.8-3.6,5.1-5.1,9.4-5.1C488.6,297.5,492.1,301.3,492.1,307.4z"/>
		<path fill="#FFFFFF" d="M523.9,307.4v15.9h-5.5v-14.4c0-3.8-2.3-6.2-6.1-6.2c-4.2,0-6.9,3-7.2,7v13.6h-5.5v-25.5h5.5v4.9
			c1.8-3.6,5.1-5.1,9.4-5.1C520.4,297.5,523.9,301.3,523.9,307.4z"/>
		<path fill="#FFFFFF" d="M553.8,312.6h-19.3c0.9,3.9,3.9,6.4,7.9,6.4c2.8,0,5.3-1.1,7.2-3l2.9,3.1c-2.5,2.7-6.1,4.3-10.6,4.3
			c-7.9,0-13.1-5.2-13.1-12.9c0-7.7,5.3-13,12.9-13C550.8,297.5,554.5,303.4,553.8,312.6z M549,308.6c-0.2-4.1-2.9-6.6-7.1-6.6
			c-4,0-6.9,2.5-7.5,6.6H549z"/>
		<path fill="#FFFFFF" d="M570.3,302.4c-4.4,0-7.6,3.3-7.6,8.2c0,4.8,3.2,8.2,7.6,8.2c3.2,0,5.8-1.1,7.5-3.1l3.1,3.1
			c-2.3,3-6,4.8-10.8,4.8c-7.6,0-12.9-5.2-12.9-12.9c0-7.7,5.3-13,12.9-13c4.6,0,8.2,1.5,10.6,4.2l-3,3.6
			C575.8,303.4,573.3,302.3,570.3,302.4z"/>
		<path fill="#FFFFFF" d="M601.1,321.6c-2,1.2-4.1,1.9-6.3,1.9c-3.8,0-7.2-2.2-7.2-7.4v-13.3H584v-4.1h3.6v-7h5.5v7h7.5v4.1h-7.5
			V315c0,2.6,1,3.5,2.7,3.5c1.2,0,2.4-0.4,3.8-1.1L601.1,321.6z"/>
		<path fill="#FFFFFF" d="M610.2,320.5c0,1-0.3,1.8-0.9,2.5l-2.7,4.1h-2.8l1.8-4.2c-0.9-0.6-1.3-1.5-1.3-2.5c0-1.8,1.2-3.1,3-3.1
			C608.8,317.4,610.2,318.6,610.2,320.5z"/>
		<path fill="#FFFFFF" d="M641.5,302.4c-4.4,0-7.6,3.3-7.6,8.2c0,4.8,3.2,8.2,7.6,8.2c3.2,0,5.8-1.1,7.5-3.1l3.1,3.1
			c-2.3,3-6,4.8-10.8,4.8c-7.6,0-12.9-5.2-12.9-12.9c0-7.7,5.3-13,12.9-13c4.6,0,8.2,1.5,10.6,4.2l-3,3.6
			C647.1,303.4,644.6,302.3,641.5,302.4z"/>
		<path fill="#FFFFFF" d="M681.1,310.4c0,7.7-5.4,13-13.3,13c-7.9,0-13.3-5.3-13.3-13c0-7.7,5.4-12.9,13.3-12.9
			C675.7,297.5,681.1,302.7,681.1,310.4z M660,310.5c0,4.9,3.2,8.3,7.8,8.3c4.6,0,7.8-3.4,7.8-8.3c0-4.9-3.2-8.3-7.8-8.3
			C663.2,302.2,660,305.6,660,310.5z"/>
		<path fill="#FFFFFF" d="M711.2,287.6v35.6h-5.5v-4.4c-1.8,3-4.9,4.6-9,4.6c-7.3,0-12.2-5.3-12.2-13.1c0-7.7,4.9-12.9,12.1-12.9
			c4.1,0,7.2,1.7,9.1,4.7v-14.5H711.2z M705.7,310.6c0-4.9-3.2-8.4-7.8-8.4s-7.8,3.5-7.9,8.4c0,4.8,3.2,8.3,7.9,8.3
			C702.5,318.9,705.7,315.4,705.7,310.6z"/>
		<path fill="#FFFFFF" d="M742.1,312.6h-19.3c0.9,3.9,3.9,6.4,7.9,6.4c2.8,0,5.3-1.1,7.2-3l2.9,3.1c-2.5,2.7-6.1,4.3-10.6,4.3
			c-7.9,0-13.1-5.2-13.1-12.9c0-7.7,5.3-13,12.9-13C739.1,297.5,742.8,303.4,742.1,312.6z M737.3,308.6c-0.2-4.1-2.9-6.6-7.1-6.6
			c-4,0-6.9,2.5-7.5,6.6H737.3z"/>
		<path fill="#FFFFFF" d="M777.6,323.2v-3.1c-1.8,2.3-4.8,3.4-8.4,3.4c-5.5,0-9-3.4-9-7.9c0-4.7,3.5-7.6,9.6-7.7h7.7v-0.8
			c0-3.2-2.1-5.1-6.1-5.1c-2.4,0-5,0.9-7.5,2.6l-2.3-3.8c3.6-2.1,6.1-3.2,11-3.2c6.6,0,10.3,3.4,10.3,9l0,16.8H777.6z M777.5,314.3
			v-2.4h-6.9c-3.6,0-5.3,1-5.3,3.4c0,2.3,1.9,3.8,4.9,3.8C774.2,319.1,777.2,317.1,777.5,314.3z"/>
		<path fill="#FFFFFF" d="M814.8,307.4v15.9h-5.5v-14.4c0-3.8-2.3-6.2-6.1-6.2c-4.2,0-6.9,3-7.2,7v13.6h-5.5v-25.5h5.5v4.9
			c1.8-3.6,5.1-5.1,9.4-5.1C811.3,297.5,814.8,301.3,814.8,307.4z"/>
		<path fill="#FFFFFF" d="M846.5,287.6v35.6H841v-4.4c-1.8,3-4.9,4.6-9,4.6c-7.3,0-12.2-5.3-12.2-13.1c0-7.7,4.9-12.9,12.1-12.9
			c4.1,0,7.2,1.7,9.1,4.7v-14.5H846.5z M841,310.6c0-4.9-3.2-8.4-7.8-8.4s-7.8,3.5-7.9,8.4c0,4.8,3.2,8.3,7.9,8.3
			C837.8,318.9,841,315.4,841,310.6z"/>
		<path fill="#FFFFFF" d="M875.1,287.6v35.6h-5.5v-35.6H875.1z"/>
		<path fill="#FFFFFF" d="M906,312.6h-19.3c0.9,3.9,3.9,6.4,7.9,6.4c2.8,0,5.3-1.1,7.2-3l2.9,3.1c-2.5,2.7-6.1,4.3-10.6,4.3
			c-7.9,0-13.1-5.2-13.1-12.9c0-7.7,5.3-13,12.9-13C903,297.5,906.6,303.4,906,312.6z M901.2,308.6c-0.2-4.1-2.9-6.6-7.1-6.6
			c-4,0-6.9,2.5-7.5,6.6H901.2z"/>
		<path fill="#FFFFFF" d="M927,323.2v-3.1c-1.8,2.3-4.8,3.4-8.4,3.4c-5.5,0-9-3.4-9-7.9c0-4.7,3.5-7.6,9.6-7.7h7.7v-0.8
			c0-3.2-2.1-5.1-6.1-5.1c-2.4,0-5,0.9-7.5,2.6l-2.3-3.8c3.6-2.1,6.1-3.2,11-3.2c6.6,0,10.3,3.4,10.3,9l0,16.8H927z M927,314.3v-2.4
			h-6.9c-3.6,0-5.3,1-5.3,3.4c0,2.3,1.9,3.8,4.9,3.8C923.7,319.1,926.7,317.1,927,314.3z"/>
		<path fill="#FFFFFF" d="M954.2,297.5v5.3c-5.1-0.3-8.4,2.7-8.8,7.1v13.3h-5.5v-25.5h5.5v5.1C947.1,299.3,950.2,297.5,954.2,297.5z
			"/>
		<path fill="#FFFFFF" d="M983.2,307.4v15.9h-5.5v-14.4c0-3.8-2.3-6.2-6.1-6.2c-4.2,0-6.9,3-7.2,7v13.6h-5.5v-25.5h5.5v4.9
			c1.8-3.6,5.1-5.1,9.4-5.1C979.6,297.5,983.2,301.3,983.2,307.4z"/>
		<path fill="#FFFFFF" d="M1019.4,321.6c-2,1.2-4.1,1.9-6.3,1.9c-3.8,0-7.2-2.2-7.2-7.4v-13.3h-3.6v-4.1h3.6v-7h5.5v7h7.5v4.1h-7.5
			V315c0,2.6,1,3.5,2.7,3.5c1.2,0,2.4-0.4,3.8-1.1L1019.4,321.6z"/>
		<path fill="#FFFFFF" d="M1048.5,310.4c0,7.7-5.4,13-13.3,13c-7.9,0-13.3-5.3-13.3-13c0-7.7,5.4-12.9,13.3-12.9
			C1043.1,297.5,1048.5,302.7,1048.5,310.4z M1027.4,310.5c0,4.9,3.2,8.3,7.8,8.3c4.6,0,7.8-3.4,7.8-8.3c0-4.9-3.2-8.3-7.8-8.3
			C1030.6,302.2,1027.4,305.6,1027.4,310.5z"/>
		<path fill="#FFFFFF" d="M1077.3,297.7v23c0,7.3-5.2,12-13.2,12c-4,0-7.5-1.2-10.6-3.4l2.4-4c2.4,1.8,4.9,2.8,8,2.8
			c4.8,0,8-2.8,8-7.2v-3.2c-1.7,2.8-4.6,4.3-8.4,4.3c-6.9,0-11.5-5-11.5-12.3c0-7.2,4.6-12.1,11.3-12.1c3.9,0,6.9,1.5,8.6,4.3v-4.1
			H1077.3z M1071.8,309.8c0-4.6-3-7.8-7.3-7.8c-4.4,0-7.4,3.3-7.4,7.8c0,4.6,3,7.9,7.4,7.9C1068.8,317.7,1071.8,314.4,1071.8,309.8z
			"/>
		<path fill="#FFFFFF" d="M1107.4,312.6h-19.3c0.9,3.9,3.9,6.4,7.9,6.4c2.8,0,5.3-1.1,7.2-3l2.9,3.1c-2.5,2.7-6.1,4.3-10.6,4.3
			c-7.9,0-13.1-5.2-13.1-12.9c0-7.7,5.3-13,12.9-13C1104.4,297.5,1108.1,303.4,1107.4,312.6z M1102.6,308.6
			c-0.2-4.1-2.9-6.6-7.1-6.6c-4,0-6.9,2.5-7.5,6.6H1102.6z"/>
		<path fill="#FFFFFF" d="M1127.6,321.6c-2,1.2-4.1,1.9-6.3,1.9c-3.8,0-7.2-2.2-7.2-7.4v-13.3h-3.6v-4.1h3.6v-7h5.5v7h7.5v4.1h-7.5
			V315c0,2.6,1,3.5,2.7,3.5c1.2,0,2.4-0.4,3.8-1.1L1127.6,321.6z"/>
		<path fill="#FFFFFF" d="M1157.4,307.4v15.9h-5.5v-14.4c0-3.8-2.3-6.2-6.1-6.2c-4.6,0-7.3,3.5-7.3,8v12.6h-5.5v-35.6h5.5v15.1
			c1.8-3.6,5.1-5.2,9.5-5.2C1153.9,297.5,1157.4,301.3,1157.4,307.4z"/>
		<path fill="#FFFFFF" d="M1187.3,312.6H1168c0.9,3.9,3.9,6.4,7.9,6.4c2.8,0,5.3-1.1,7.2-3l2.9,3.1c-2.5,2.7-6.1,4.3-10.6,4.3
			c-7.9,0-13.1-5.2-13.1-12.9c0-7.7,5.3-13,12.9-13C1184.3,297.5,1188,303.4,1187.3,312.6z M1182.5,308.6c-0.2-4.1-2.9-6.6-7.1-6.6
			c-4,0-6.9,2.5-7.5,6.6H1182.5z"/>
		<path fill="#FFFFFF" d="M1207.4,297.5v5.3c-5.1-0.3-8.4,2.7-8.8,7.1v13.3h-5.5v-25.5h5.5v5.1
			C1200.3,299.3,1203.4,297.5,1207.4,297.5z"/>
		<path fill="#FFFFFF" d="M1216.1,320.5c0,1.9-1.3,3.2-3,3.2s-3-1.3-3-3.2c0-1.8,1.3-3.1,3-3.1S1216.1,318.6,1216.1,320.5z"/>
	</g>
</g>
<g id="Layer_2" display="none">
</g>
</svg>
